<svg width="0" height="0" class="hidden">
  <symbol fill="none" xmlns="http://www.w3.org/2000/svg" viewBox="0 0 12 8" id="arrow">
    <path d="M1.415.21L6 4.795 10.585.21 12 1.625l-6 6-6-6L1.415.21z" fill="#fff"></path>
  </symbol>
  <symbol fill="none" xmlns="http://www.w3.org/2000/svg" viewBox="0 0 22 22" id="add">
    <path d="M11 0C4.9 0 0 4.9 0 11s4.9 11 11 11 11-4.9 11-11S17.1 0 11 0zm5 13h-3v3c0 1.1-.9 2-2 2s-2-.9-2-2v-3H6c-1.1 0-2-.9-2-2s.9-2 2-2h3V6c0-1.1.9-2 2-2s2 .9 2 2v3h3c1.1 0 2 .9 2 2s-.9 2-2 2z" fill="#000"></path>
  </symbol>
</svg>
